<?xml version="1.0" encoding="utf-8"?>
<!-- Generator: Adobe Illustrator 16.0.2, SVG Export Plug-In . SVG Version: 6.00 Build 0)  -->
<!DOCTYPE svg PUBLIC "-//W3C//DTD SVG 1.1//EN" "http://www.w3.org/Graphics/SVG/1.1/DTD/svg11.dtd">
<svg version="1.1" xmlns="http://www.w3.org/2000/svg" xmlns:xlink="http://www.w3.org/1999/xlink" x="0px" y="0px" width="24px"
	 height="24px" viewBox="0 0 24 24" enable-background="new 0 0 24 24" xml:space="preserve">
<g id="Layer_1">
</g>
<g id="bg" display="none">
	<rect display="inline" opacity="0.3" fill="#FA0F0C" width="24" height="24"/>
</g>
<g id="merge">
	<path fill="#3C3C3C" d="M18.425,12.146L13.459,7.18c-0.195-0.195-0.512-0.195-0.707,0s-0.195,0.512,0,0.707L16.864,12H5
		c-0.276,0-0.5,0.224-0.5,0.5S4.724,13,5,13h11.864l-4.112,4.113c-0.195,0.195-0.195,0.512,0,0.707
		c0.098,0.098,0.226,0.146,0.354,0.146s0.256-0.049,0.354-0.146l4.966-4.967C18.62,12.658,18.62,12.342,18.425,12.146z"/>
</g>
</svg>
