<?xml version="1.0" encoding="utf-8"?>
<!-- Generator: Adobe Illustrator 16.0.2, SVG Export Plug-In . SVG Version: 6.00 Build 0)  -->
<!DOCTYPE svg PUBLIC "-//W3C//DTD SVG 1.1//EN" "http://www.w3.org/Graphics/SVG/1.1/DTD/svg11.dtd">
<svg version="1.1" xmlns="http://www.w3.org/2000/svg" xmlns:xlink="http://www.w3.org/1999/xlink" x="0px" y="0px" width="16px"
	 height="16px" viewBox="0 0 16 16" enable-background="new 0 0 16 16" xml:space="preserve">
<g id="Layer_5" display="none">
	<rect x="-233" y="-437" display="inline" fill="#FFFFFF" width="600" height="668"/>
</g>
<g id="grilla" display="none">
	<rect display="inline" opacity="0.3" fill="#FF0000" width="16" height="16"/>
</g>
<g id="op1." display="none">
	<path display="inline" fill="none" stroke="#3C3C3C" stroke-linejoin="round" stroke-miterlimit="10" d="M11.5,7v1.5h-7V7V6.962
		c0-1.933,1.567-3.5,3.5-3.5s3.5,1.567,3.5,3.5V7z"/>
	<circle display="inline" fill="#3C3C3C" cx="8" cy="3" r="1"/>
	
		<line display="inline" fill="none" stroke="#3C3C3C" stroke-linecap="round" stroke-linejoin="round" stroke-miterlimit="10" x1="1" y1="14.5" x2="15" y2="14.5"/>
	
		<line display="inline" fill="none" stroke="#3C3C3C" stroke-linecap="round" stroke-linejoin="round" stroke-miterlimit="10" x1="1" y1="11.5" x2="15" y2="11.5"/>
	
		<line display="inline" fill="none" stroke="#3C3C3C" stroke-linecap="round" stroke-linejoin="round" stroke-miterlimit="10" x1="3" y1="8.5" x2="13" y2="8.5"/>
	
		<line display="inline" fill="none" stroke="#3C3C3C" stroke-linecap="round" stroke-linejoin="round" stroke-miterlimit="10" x1="2.5" y1="12" x2="2.5" y2="14"/>
	
		<line display="inline" fill="none" stroke="#3C3C3C" stroke-linecap="round" stroke-linejoin="round" stroke-miterlimit="10" x1="13.5" y1="12" x2="13.5" y2="14"/>
	
		<line display="inline" fill="none" stroke="#3C3C3C" stroke-linecap="round" stroke-linejoin="round" stroke-miterlimit="10" x1="10.75" y1="12" x2="10.75" y2="14"/>
	
		<line display="inline" fill="none" stroke="#3C3C3C" stroke-linecap="round" stroke-linejoin="round" stroke-miterlimit="10" x1="8" y1="12" x2="8" y2="14"/>
	
		<line display="inline" fill="none" stroke="#3C3C3C" stroke-linecap="round" stroke-linejoin="round" stroke-miterlimit="10" x1="5.25" y1="12" x2="5.25" y2="14"/>
	
		<line display="inline" fill="none" stroke="#3C3C3C" stroke-linecap="round" stroke-linejoin="round" stroke-miterlimit="10" x1="3.8" y1="9" x2="3.8" y2="11"/>
	
		<line display="inline" fill="none" stroke="#3C3C3C" stroke-linecap="round" stroke-linejoin="round" stroke-miterlimit="10" x1="12.125" y1="9" x2="12.125" y2="11"/>
	
		<line display="inline" fill="none" stroke="#3C3C3C" stroke-linecap="round" stroke-linejoin="round" stroke-miterlimit="10" x1="9.375" y1="9" x2="9.375" y2="11"/>
	
		<line display="inline" fill="none" stroke="#3C3C3C" stroke-linecap="round" stroke-linejoin="round" stroke-miterlimit="10" x1="6.625" y1="9" x2="6.625" y2="11"/>
</g>
<g id="op2." display="none">
	<path display="inline" fill="none" stroke="#3C3C3C" stroke-linejoin="round" stroke-miterlimit="10" d="M11.5,7v1.5h-7V7V6.962
		c0-1.933,1.567-3.5,3.5-3.5s3.5,1.567,3.5,3.5V7z"/>
	<circle display="inline" fill="#3C3C3C" cx="8" cy="3" r="1"/>
	
		<line display="inline" fill="none" stroke="#3C3C3C" stroke-linecap="round" stroke-linejoin="round" stroke-miterlimit="10" x1="1" y1="14.5" x2="15" y2="14.5"/>
	
		<line display="inline" fill="none" stroke="#3C3C3C" stroke-linecap="round" stroke-linejoin="round" stroke-miterlimit="10" x1="1" y1="11.5" x2="15" y2="11.5"/>
	
		<line display="inline" fill="none" stroke="#3C3C3C" stroke-linecap="round" stroke-linejoin="round" stroke-miterlimit="10" x1="3" y1="8.5" x2="13" y2="8.5"/>
	
		<line display="inline" fill="none" stroke="#3C3C3C" stroke-linecap="round" stroke-linejoin="round" stroke-miterlimit="10" x1="2.5" y1="12" x2="2.5" y2="14"/>
	
		<line display="inline" fill="none" stroke="#3C3C3C" stroke-linecap="round" stroke-linejoin="round" stroke-miterlimit="10" x1="13.5" y1="12" x2="13.5" y2="14"/>
	
		<line display="inline" fill="none" stroke="#3C3C3C" stroke-linecap="round" stroke-linejoin="round" stroke-miterlimit="10" x1="10.75" y1="12" x2="10.75" y2="14"/>
	
		<line display="inline" fill="none" stroke="#3C3C3C" stroke-linecap="round" stroke-linejoin="round" stroke-miterlimit="10" x1="8" y1="12" x2="8" y2="14"/>
	
		<line display="inline" fill="none" stroke="#3C3C3C" stroke-linecap="round" stroke-linejoin="round" stroke-miterlimit="10" x1="5.25" y1="12" x2="5.25" y2="14"/>
	
		<line display="inline" fill="none" stroke="#3C3C3C" stroke-linecap="round" stroke-linejoin="round" stroke-miterlimit="10" x1="3.8" y1="9" x2="3.8" y2="11"/>
	
		<line display="inline" fill="none" stroke="#3C3C3C" stroke-linecap="round" stroke-linejoin="round" stroke-miterlimit="10" x1="12.125" y1="9" x2="12.125" y2="11"/>
	
		<line display="inline" fill="none" stroke="#3C3C3C" stroke-linecap="round" stroke-linejoin="round" stroke-miterlimit="10" x1="9.375" y1="9" x2="9.375" y2="11"/>
	
		<line display="inline" fill="none" stroke="#3C3C3C" stroke-linecap="round" stroke-linejoin="round" stroke-miterlimit="10" x1="6.625" y1="9" x2="6.625" y2="11"/>
</g>
<g id="merge">
	<g>
		<path fill="#3C3C3C" d="M3.8,11.5c-0.276,0-0.5-0.224-0.5-0.5V9c0-0.276,0.224-0.5,0.5-0.5S4.3,8.724,4.3,9v2
			C4.3,11.276,4.076,11.5,3.8,11.5z"/>
	</g>
	<g>
		<path fill="#3C3C3C" d="M12.125,11.5c-0.276,0-0.5-0.224-0.5-0.5V9c0-0.276,0.224-0.5,0.5-0.5s0.5,0.224,0.5,0.5v2
			C12.625,11.276,12.401,11.5,12.125,11.5z"/>
	</g>
	<path fill="#3C3C3C" d="M15,14h-1v-2h1c0.276,0,0.5-0.224,0.5-0.5S15.276,11,15,11h-5V9h1.5H13c0.276,0,0.5-0.224,0.5-0.5
		S13.276,8,13,8h-1V6.962c0-1.866-1.289-3.424-3.02-3.864C8.983,3.064,9,3.035,9,3c0-0.552-0.448-1-1-1S7,2.448,7,3
		c0,0.035,0.017,0.064,0.02,0.099C5.289,3.54,4,5.103,4,7v1H3C2.724,8,2.5,8.224,2.5,8.5S2.724,9,3,9h1.5H6v2H1
		c-0.276,0-0.5,0.224-0.5,0.5S0.724,12,1,12h1v2H1c-0.276,0-0.5,0.224-0.5,0.5S0.724,15,1,15h14c0.276,0,0.5-0.224,0.5-0.5
		S15.276,14,15,14z M5,8V6.962c0-1.612,1.28-2.921,2.876-2.987C7.918,3.98,7.956,4,8,4s0.082-0.02,0.124-0.025
		C9.72,4.042,11,5.352,11,7v1H5z M7.125,9h1.75v2h-1.75V9z M3,14v-2h1.75v2H3z M5.75,14v-2H7.5v2H5.75z M8.5,14v-2h1.75v2H8.5z
		 M11.25,14v-2H13v2H11.25z"/>
</g>
<g id="Layer_3" display="none">
</g>
</svg>
