<?xml version="1.0" encoding="utf-8"?>
<!-- Generator: Adobe Illustrator 16.0.0, SVG Export Plug-In . SVG Version: 6.00 Build 0)  -->
<!DOCTYPE svg PUBLIC "-//W3C//DTD SVG 1.1//EN" "http://www.w3.org/Graphics/SVG/1.1/DTD/svg11.dtd">
<svg version="1.1" id="Capa_1" xmlns="http://www.w3.org/2000/svg" xmlns:xlink="http://www.w3.org/1999/xlink" x="0px" y="0px"
	 width="283.594px" height="371.094px" viewBox="0 0 283.594 371.094" enable-background="new 0 0 283.594 371.094"
	 xml:space="preserve">
<g>
	<path fill="#FFFFFF" d="M36.861,138.18v3.143H23.15v36.848h-3.313v-36.848H6.183v-3.143H36.861z"/>
	<path fill="#FFFFFF" d="M70.277,175.028v3.143H43.94v-39.99h25.993v3.143H47.197v13.939h18.338v3.027H47.197v16.738H70.277z"/>
	<path fill="#FFFFFF" d="M111.175,138.18v39.99h-3.084l-20.396-27.479c-3.428-4.686-5.142-7.256-5.198-7.256H82.44
		c-0.058,0,0.114,4.685,0.114,10.397v24.337h-3.256v-39.99h3.084l20.338,27.365c3.143,4.227,5.199,7.084,5.256,7.084h0.058
		c0.058,0-0.171-4.799-0.171-10.17V138.18H111.175z"/>
	<path fill="#FFFFFF" d="M148.646,175.028v3.143H122.31v-39.99h25.995v3.143h-22.739v13.939h18.338v3.027h-18.338v16.738H148.646z"
		/>
	<path fill="#FFFFFF" d="M193.717,138.18v39.99h-3.256v-20.281c0-5.256,0.285-14.053,0.229-14.053h-0.059
		c-0.057,0-1.77,3.084-3.428,6.055l-10.625,18.453h-1.771l-10.625-18.453c-1.658-2.971-3.371-6.055-3.428-6.055h-0.059
		c-0.057,0,0.229,8.797,0.229,14.053v20.281h-3.256v-39.99h3.086l10.568,18.225c3.6,6.112,4.285,7.883,4.342,7.883h0.057
		c0.057,0,0.742-1.771,4.342-7.883l10.568-18.225H193.717z"/>
	<path fill="#FFFFFF" d="M222.332,137.38c11.482,0,20.795,8.741,20.795,20.795s-9.313,20.795-20.795,20.795
		s-20.738-8.741-20.738-20.795S210.85,137.38,222.332,137.38z M222.332,175.771c9.713,0,17.424-7.198,17.424-17.596
		c0-10.512-7.711-17.596-17.424-17.596c-9.77,0-17.367,7.084-17.367,17.596C204.965,168.573,212.563,175.771,222.332,175.771z"/>
	<path fill="#FFFFFF" d="M273.285,148.864c-0.857-5.313-5.256-8.513-10.855-8.513c-5.883,0-10.168,2.8-10.168,7.483
		c0,4.856,5.941,6.398,11.369,7.885c5.541,1.542,13.482,3.77,13.482,11.825c0,6.569-5.713,11.426-14.34,11.426
		s-13.883-5.142-14.74-11.712l3.143-0.856c0.457,5.142,4.57,9.54,11.711,9.54c6.627,0,10.799-3.541,10.799-8.34
		c0-6.627-7.541-7.885-13.141-9.541c-4.57-1.314-11.654-3.256-11.654-10.111c0-6.228,5.77-10.569,13.654-10.569
		c7.141,0,12.74,4.171,13.939,10.626L273.285,148.864z"/>
</g>
<g>
	<path fill="#FFFFFF" d="M39.087,263.436c-1.146-7.113-7.035-11.396-14.53-11.396c-7.878,0-13.613,3.748-13.613,10.02
		c0,6.5,7.954,8.564,15.22,10.553c7.418,2.066,18.048,5.049,18.048,15.832c0,8.795-7.647,15.295-19.196,15.295
		c-11.547,0-18.584-6.883-19.73-15.678l4.206-1.146c0.612,6.883,6.118,12.771,15.678,12.771c8.872,0,14.454-4.742,14.454-11.166
		c0-8.871-10.095-10.555-17.59-12.771c-6.117-1.76-15.602-4.359-15.602-13.537c0-8.336,7.725-14.148,18.279-14.148
		c9.559,0,17.054,5.584,18.66,14.225L39.087,263.436z"/>
	<path fill="#FFFFFF" d="M78.705,248.063c15.371,0,27.837,11.701,27.837,27.838s-12.466,27.838-27.837,27.838
		c-15.373,0-27.762-11.701-27.762-27.838S63.332,248.063,78.705,248.063z M78.705,299.455c13,0,23.324-9.637,23.324-23.555
		c0-14.072-10.324-23.555-23.324-23.555c-13.078,0-23.25,9.482-23.25,23.555C55.455,289.818,65.626,299.455,78.705,299.455z"/>
	<path fill="#FFFFFF" d="M165.049,249.133v53.535h-4.359v-27.15c0-7.035,0.383-18.813,0.307-18.813h-0.076
		c-0.078,0-2.371,4.129-4.59,8.105l-14.225,24.703h-2.371l-14.225-24.703c-2.218-3.977-4.513-8.105-4.589-8.105h-0.076
		c-0.076,0,0.306,11.777,0.306,18.813v27.15h-4.359v-53.535h4.13l14.148,24.396c4.818,8.184,5.735,10.555,5.813,10.555h0.076
		c0.076,0,0.995-2.371,5.813-10.555l14.148-24.396H165.049z"/>
	<path fill="#FFFFFF" d="M203.367,248.063c15.371,0,27.836,11.701,27.836,27.838s-12.465,27.838-27.836,27.838
		c-15.373,0-27.762-11.701-27.762-27.838S187.994,248.063,203.367,248.063z M203.367,299.455c13,0,23.324-9.637,23.324-23.555
		c0-14.072-10.324-23.555-23.324-23.555c-13.078,0-23.25,9.482-23.25,23.555C180.117,289.818,190.289,299.455,203.367,299.455z"/>
	<path fill="#FFFFFF" d="M271.586,263.436c-1.148-7.113-7.037-11.396-14.531-11.396c-7.877,0-13.613,3.748-13.613,10.02
		c0,6.5,7.953,8.564,15.219,10.553c7.418,2.066,18.049,5.049,18.049,15.832c0,8.795-7.646,15.295-19.195,15.295
		s-18.584-6.883-19.73-15.678l4.205-1.146c0.611,6.883,6.119,12.771,15.678,12.771c8.871,0,14.455-4.742,14.455-11.166
		c0-8.871-10.096-10.555-17.59-12.771c-6.119-1.76-15.602-4.359-15.602-13.537c0-8.336,7.725-14.148,18.277-14.148
		c9.561,0,17.055,5.584,18.66,14.225L271.586,263.436z"/>
</g>
<g>
	<path fill="#FFFFFF" d="M37.699,6.233v3.129H24.046v36.69h-3.299V9.362H7.152V6.233H37.699z"/>
	<path fill="#FFFFFF" d="M70.979,42.923v3.129H44.755V6.233h25.882v3.129h-22.64v13.88h18.26v3.015h-18.26v16.667H70.979z"/>
	<path fill="#FFFFFF" d="M111.71,6.233v39.819h-3.072L88.331,18.691c-3.413-4.665-5.119-7.225-5.177-7.225h-0.057
		c-0.057,0,0.114,4.665,0.114,10.353v24.233h-3.243V6.233h3.072l20.251,27.248c3.129,4.209,5.177,7.054,5.233,7.054h0.057
		c0.057,0-0.17-4.778-0.17-10.126V6.233H111.71z"/>
	<path fill="#FFFFFF" d="M149.029,42.923v3.129h-26.223V6.233h25.883v3.129h-22.641v13.88h18.26v3.015h-18.26v16.667H149.029z"/>
	<path fill="#FFFFFF" d="M193.914,6.233v39.819h-3.242V25.858c0-5.233,0.285-13.993,0.229-13.993h-0.059
		c-0.057,0-1.762,3.071-3.412,6.029l-10.58,18.374h-1.764l-10.58-18.374c-1.65-2.958-3.357-6.029-3.414-6.029h-0.057
		c-0.057,0,0.227,8.76,0.227,13.993v20.194h-3.242V6.233h3.072l10.523,18.146c3.584,6.086,4.268,7.85,4.324,7.85h0.057
		c0.057,0,0.738-1.764,4.322-7.85l10.523-18.146H193.914z"/>
	<path fill="#FFFFFF" d="M222.418,5.436c11.434,0,20.705,8.704,20.705,20.707c0,12.002-9.271,20.705-20.705,20.705
		s-20.65-8.703-20.65-20.705C201.768,14.14,210.984,5.436,222.418,5.436z M222.418,43.663c9.67,0,17.35-7.167,17.35-17.52
		c0-10.467-7.68-17.521-17.35-17.521c-9.729,0-17.293,7.055-17.293,17.521C205.125,36.496,212.689,43.663,222.418,43.663z"/>
	<path fill="#FFFFFF" d="M273.162,16.871c-0.854-5.29-5.234-8.476-10.809-8.476c-5.859,0-10.125,2.787-10.125,7.451
		c0,4.836,5.916,6.371,11.32,7.851c5.518,1.536,13.424,3.754,13.424,11.774c0,6.542-5.688,11.377-14.277,11.377
		s-13.824-5.119-14.676-11.661l3.127-0.853c0.455,5.119,4.551,9.499,11.662,9.499c6.6,0,10.752-3.526,10.752-8.305
		c0-6.599-7.51-7.851-13.084-9.5c-4.551-1.309-11.605-3.242-11.605-10.068c0-6.2,5.746-10.524,13.596-10.524
		c7.111,0,12.686,4.153,13.881,10.581L273.162,16.871z"/>
</g>
<g>
	<path fill="#FFFFFF" d="M27.257,54.602c12.727,0,20.421,6.659,20.421,17.758s-7.694,17.758-20.421,17.758h-7.325v16.277H7.501
		V54.602H27.257z M27.035,78.5c4.81,0,7.695-2.293,7.695-6.141s-2.886-6.142-7.695-6.142h-7.103V78.5H27.035z"/>
	<path fill="#FFFFFF" d="M82.304,98.256H61.808l-2.959,8.139H45.457l20.718-51.793h11.765l20.717,51.793H85.263L82.304,98.256z
		 M78.308,87.379l-3.699-10.063c-1.109-2.96-2.441-7.621-2.516-7.621h-0.074c-0.074,0-1.405,4.661-2.516,7.621l-3.699,10.063H78.308
		z"/>
	<path fill="#FFFFFF" d="M140.902,54.602v11.616h-15.76v40.177h-12.43V66.218H97.174V54.602H140.902z"/>
	<path fill="#FFFFFF" d="M178.783,106.395l-9.619-16.87h-6.361v16.87h-12.432V54.602h19.313c13.021,0,20.865,7.104,20.865,17.758
		c0,6.955-3.33,12.134-9.324,14.945l11.469,19.09H178.783z M162.803,78.5h8.582c4.439,0,6.215-3.329,6.215-6.141
		s-1.775-6.142-6.215-6.142h-8.582V78.5z"/>
	<path fill="#FFFFFF" d="M203.643,106.395V54.602h12.43v51.793H203.643z"/>
	<path fill="#FFFFFF" d="M260.17,98.256h-20.496l-2.959,8.139h-13.393l20.719-51.793h11.764l20.717,51.793h-13.393L260.17,98.256z
		 M256.174,87.379l-3.699-10.063c-1.109-2.96-2.441-7.621-2.516-7.621h-0.074c-0.074,0-1.404,4.661-2.516,7.621l-3.699,10.063
		H256.174z"/>
</g>
<g>
	<path fill="#FFFFFF" d="M20.52,187.443c8.601,0,13.801,4.5,13.801,12.002c0,7.5-5.2,12-13.801,12h-4.95v11h-8.4v-35.002H20.52z
		 M20.371,203.594c3.25,0,5.199-1.549,5.199-4.148c0-2.602-1.949-4.15-5.199-4.15H15.57v8.299H20.371z"/>
	<path fill="#FFFFFF" d="M57.919,222.445l-6.501-11.4h-4.3v11.4h-8.4v-35.002h13.051c8.8,0,14.1,4.801,14.1,12.002
		c0,4.699-2.25,8.199-6.3,10.1l7.751,12.9H57.919z M47.119,203.594h5.8c3,0,4.2-2.25,4.2-4.148c0-1.9-1.2-4.15-4.2-4.15h-5.8
		V203.594z"/>
	<path fill="#FFFFFF" d="M87.216,186.744c10.051,0,18.201,7.65,18.201,18.201s-8.15,18.201-18.201,18.201s-18.15-7.65-18.15-18.201
		S77.166,186.744,87.216,186.744z M87.216,214.846c5.701,0,9.451-4.051,9.451-9.9c0-5.9-3.75-9.9-9.451-9.9c-5.65,0-9.4,4-9.4,9.9
		C77.816,210.795,81.566,214.846,87.216,214.846z"/>
	<path fill="#FFFFFF" d="M139.317,187.443l-13.401,19.502v15.5h-8.35v-15.5l-13.401-19.502h9.4l6.351,9.352
		c1,1.5,1.75,2.549,1.801,2.549h0.049c0.051,0,0.801-1.049,1.801-2.549l6.35-9.352H139.317z"/>
	<path fill="#FFFFFF" d="M168.965,214.596v7.85h-25.752v-35.002h25.451v7.852h-17.051v5.75h13.352v7.35h-13.352v6.201H168.965z"/>
	<path fill="#FFFFFF" d="M198.213,198.295c-1.6-2-4.6-3.25-7.35-3.25c-5.801,0-9.402,4.15-9.402,9.9
		c0,6.049,3.951,9.801,9.402,9.801c3.35,0,6.549-1.701,8-4.102l8.5,2.201c-2.9,6.199-9.15,10.301-16.5,10.301
		c-10.051,0-18.152-7.65-18.152-18.201s8.102-18.201,18.152-18.201c6.9,0,12.801,3.699,15.9,9.301L198.213,198.295z"/>
	<path fill="#FFFFFF" d="M238.711,187.443v7.852h-10.65v27.15h-8.4v-27.15h-10.5v-7.852H238.711z"/>
	<path fill="#FFFFFF" d="M258.609,186.744c10.051,0,18.201,7.65,18.201,18.201s-8.15,18.201-18.201,18.201s-18.15-7.65-18.15-18.201
		S248.559,186.744,258.609,186.744z M258.609,214.846c5.701,0,9.451-4.051,9.451-9.9c0-5.9-3.75-9.9-9.451-9.9
		c-5.65,0-9.4,4-9.4,9.9C249.209,210.795,252.959,214.846,258.609,214.846z"/>
</g>
<g>
	<path fill="#FFFFFF" d="M18.464,324.92v9.146h17.156v10.08H18.464v17.023H7.25v-46.73h33.312v10.48H18.464z"/>
	<path fill="#FFFFFF" d="M88.494,314.439v25.969c0,14.02-8.277,21.695-20.627,21.695c-12.418,0-20.629-7.676-20.629-21.695v-25.969
		h11.215v25.701c0,8.012,3.271,11.482,9.414,11.482c6.141,0,9.412-3.471,9.412-11.482v-25.701H88.494z"/>
	<path fill="#FFFFFF" d="M132.956,314.439v10.48h-14.22v36.25h-11.215v-36.25h-14.02v-10.48H132.956z"/>
	<path fill="#FFFFFF" d="M179.221,314.439v25.969c0,14.02-8.279,21.695-20.629,21.695c-12.416,0-20.627-7.676-20.627-21.695v-25.969
		h11.215v25.701c0,8.012,3.271,11.482,9.412,11.482c6.143,0,9.412-3.471,9.412-11.482v-25.701H179.221z"/>
	<path fill="#FFFFFF" d="M213.4,361.17l-8.678-15.221h-5.742v15.221h-11.215v-46.73h17.424c11.75,0,18.826,6.408,18.826,16.021
		c0,6.275-3.004,10.949-8.412,13.484l10.348,17.225H213.4z M198.98,336.002h7.744c4.006,0,5.607-3.004,5.607-5.541
		s-1.602-5.541-5.607-5.541h-7.744V336.002z"/>
	<path fill="#FFFFFF" d="M252.521,313.504c13.42,0,24.301,10.215,24.301,24.301s-10.881,24.299-24.301,24.299
		c-13.418,0-24.232-10.213-24.232-24.299S239.104,313.504,252.521,313.504z M252.521,351.021c7.611,0,12.617-5.406,12.617-13.217
		c0-7.877-5.006-13.219-12.617-13.219c-7.543,0-12.549,5.342-12.549,13.219C239.973,345.615,244.979,351.021,252.521,351.021z"/>
</g>
</svg>
